<?xml version="1.0" encoding="UTF-8"?>
<svg width="30px" height="26px" viewBox="0 0 30 26" version="1.1" xmlns="http://www.w3.org/2000/svg" xmlns:xlink="http://www.w3.org/1999/xlink">
    <title>D5B6F133-9E67-41C4-8516-9CB566855029</title>
    <g id="01-Design" stroke="none" stroke-width="1" fill="none" fill-rule="evenodd">
        <g id="09-[1440]-Customer-Service-—-FAQs" transform="translate(-712.000000, -637.000000)" fill="#000000">
            <g id="Right-Block" transform="translate(291.000000, 374.000000)">
                <g id="Filters" transform="translate(30.000000, 189.000000)">
                    <g id="Category" transform="translate(277.000000, 0.000000)">
                        <g id="Icon-/-Customer-Service-/-Boutique-Services" transform="translate(114.000000, 74.000000)">
                            <path d="M15,13 C21.627,13 27,18.373 27,25 L27,25 L29.5,25 C29.776,25 30,25.224 30,25.5 C30,25.776 29.776,26 29.5,26 L29.5,26 L0.5,26 C0.224,26 0,25.776 0,25.5 C0,25.224 0.224,25 0.5,25 L0.5,25 L3,25 C3,18.373 8.373,13 15,13 Z M15,14 C8.925,14 4,18.925 4,25 L4,25 L26,25 C26,18.925 21.075,14 15,14 Z M18.5,9 C18.776,9 19,9.224 19,9.5 C19,9.776 18.776,10 18.5,10 L18.5,10 L15.5,10 L15.5,13 L14.5,13 L14.5,10 L11.5,10 C11.224,10 11,9.776 11,9.5 C11,9.224 11.224,9 11.5,9 L11.5,9 Z M22.1461,2.1459 C22.3421,1.9509 22.6581,1.9509 22.8531,2.1459 C23.0491,2.3419 23.0491,2.6579 22.8531,2.8539 L22.8531,2.8539 L20.0251,5.6819 C19.8301,5.8769 19.5131,5.8769 19.3181,5.6819 C19.1231,5.4869 19.1231,5.1699 19.3181,4.9749 L19.3181,4.9749 Z M7.1469,2.1459 C7.3419,1.9509 7.6579,1.9509 7.8539,2.1459 L7.8539,2.1459 L10.6819,4.9749 C10.8769,5.1699 10.8769,5.4869 10.6819,5.6819 C10.4869,5.8769 10.1699,5.8769 9.9749,5.6819 L9.9749,5.6819 L7.1469,2.8539 C6.9509,2.6579 6.9509,2.3419 7.1469,2.1459 Z M15,0 C15.276,0 15.5,0.224 15.5,0.5 L15.5,0.5 L15.5,4.5 C15.5,4.776 15.276,5 15,5 C14.724,5 14.5,4.776 14.5,4.5 L14.5,4.5 L14.5,0.5 C14.5,0.224 14.724,0 15,0 Z" id="Boutique-Services-Icon"></path>
                        </g>
                    </g>
                </g>
            </g>
        </g>
    </g>
</svg>