<?xml version="1.0" encoding="utf-8"?>
<!-- Generator: Adobe Illustrator 22.0.0, SVG Export Plug-In . SVG Version: 6.00 Build 0)  -->
<svg version="1.1" id="图层_1" xmlns="http://www.w3.org/2000/svg" xmlns:xlink="http://www.w3.org/1999/xlink" x="0px" y="0px"
	 viewBox="0 0 40 40" style="enable-background:new 0 0 40 40;" xml:space="preserve">
<style type="text/css">
	.st0{fill:#333333;}
</style>
<title>Icon/Social media/Facebook</title>
<desc>Created with Sketch.</desc>
<path id="path-1_1_" class="st0" d="M32.2,6H7.5C6.7,6,6,6.7,6,7.5v24.7c0,0.8,0.7,1.5,1.5,1.5h13.3V23h-3.6v-4.2h3.6v-3.1
	c0-3.6,2.2-5.5,5.4-5.5c1.5,0,2.9,0.1,3.2,0.2v3.7l-2.2,0c-1.7,0-2.1,0.8-2.1,2v2.7h4.2L28.8,23h-3.6v10.7h7.1
	c0.8,0,1.5-0.7,1.5-1.5V7.5C33.8,6.7,33.1,6,32.2,6"/>
</svg>
