<svg width="80" height="80" viewBox="0 0 80 80" fill="none" xmlns="http://www.w3.org/2000/svg">
<circle cx="40" cy="40" r="28" stroke="black" stroke-width="4"/>
<path d="M45.0774 43.5654L43.1631 45.4796C42.7881 45.8546 42.2763 46.0944 41.7522 46.013C40.7899 45.8636 39.2993 45.2874 37.0773 43.0654C35.2983 41.2863 34.1419 39.2142 33.5269 37.7858C33.2138 37.0587 33.4769 36.2455 34.039 35.6881C34.9477 34.7868 35.8674 33.6456 35.5773 33.0654C35.0773 32.0654 33.0773 28.5654 32.0773 28.0654C31.0773 27.5654 29.0774 30.0654 28.5774 31.0654C28.0774 32.0654 27.5774 35.5654 28.5774 38.0654C29.5774 40.5654 33.5 46 36.0774 48.0654C38.0282 49.6287 42.5774 52.0654 45.5774 52.0654C48.5774 52.0654 50.5774 49.5654 51.0774 48.5654C51.336 48.0481 51.3298 47.3635 51.2481 46.8091C51.1764 46.3223 50.8416 45.9304 50.4138 45.6874C49.1332 44.9602 47.2474 43.9004 46.5774 43.5654C45.7774 43.1654 45.244 43.3987 45.0774 43.5654Z" fill="black"/>
</svg>
