<?xml version="1.0" encoding="utf-8"?>
<!-- Generator: Adobe Illustrator 22.0.0, SVG Export Plug-In . SVG Version: 6.00 Build 0)  -->
<svg version="1.1" id="图层_1" xmlns="http://www.w3.org/2000/svg" xmlns:xlink="http://www.w3.org/1999/xlink" x="0px" y="0px"
	 viewBox="0 0 40 40" style="enable-background:new 0 0 40 40;" xml:space="preserve">
<style type="text/css">
	.st0{fill:#333333;}
</style>
<title>Icon/Social media/Instagram</title>
<desc>Created with Sketch.</desc>
<path id="path-1_1_" class="st0" d="M21.3,5.1c2.9,0,3.5,0,4.9,0.1c1.6,0.1,2.7,0.3,3.6,0.7c1,0.4,1.8,0.9,2.7,1.7
	c0.8,0.8,1.3,1.7,1.7,2.7c0.4,1,0.6,2,0.7,3.6c0.1,1.5,0.1,2,0.1,5.2v2c0,3.2,0,3.7-0.1,5.2c-0.1,1.6-0.3,2.7-0.7,3.6
	c-0.4,1-0.9,1.8-1.7,2.7c-0.8,0.8-1.7,1.3-2.7,1.7c-1,0.4-2,0.6-3.6,0.7C24.6,35,24.1,35,20,35l-0.4,0c-3.8,0-4.3,0-5.8-0.1
	c-1.6-0.1-2.7-0.3-3.6-0.7c-1-0.4-1.8-0.9-2.7-1.7c-0.8-0.8-1.3-1.7-1.7-2.7c-0.4-1-0.6-2-0.7-3.6C5,24.8,5,24.2,5,21.3v-2.6
	c0-2.9,0-3.5,0.1-4.9c0.1-1.6,0.3-2.7,0.7-3.6c0.4-1,0.9-1.8,1.7-2.7c0.8-0.8,1.7-1.3,2.7-1.7c1-0.4,2-0.6,3.6-0.7
	c1.4-0.1,2-0.1,4.9-0.1H21.3z M21,7.8h-2c-3.1,0-3.6,0-5.1,0.1c-1.5,0.1-2.3,0.3-2.8,0.5C10.5,8.6,10,9,9.4,9.5
	c-0.5,0.5-0.8,1-1.1,1.7c-0.2,0.5-0.4,1.3-0.5,2.8c-0.1,1.6-0.1,2.1-0.1,6l0,0.4c0,3.7,0,4.2,0.1,5.7c0.1,1.5,0.3,2.3,0.5,2.8
	c0.3,0.7,0.6,1.2,1.1,1.7c0.5,0.5,1,0.8,1.7,1.1c0.5,0.2,1.3,0.4,2.8,0.5c1.4,0.1,2,0.1,5.1,0.1h2c3.1,0,3.6,0,5.1-0.1
	c1.5-0.1,2.3-0.3,2.8-0.5c0.7-0.3,1.2-0.6,1.7-1.1c0.5-0.5,0.8-1,1.1-1.7c0.2-0.5,0.4-1.3,0.5-2.8c0.1-1.4,0.1-2,0.1-5v-2
	c0-3.1,0-3.6-0.1-5c-0.1-1.5-0.3-2.3-0.5-2.8c-0.3-0.7-0.6-1.2-1.1-1.7c-0.5-0.5-1-0.8-1.7-1.1c-0.5-0.2-1.3-0.4-2.8-0.5
	C24.6,7.8,24.1,7.8,21,7.8z M20,12.3c4.3,0,7.7,3.4,7.7,7.7c0,4.2-3.4,7.7-7.7,7.7s-7.7-3.4-7.7-7.7C12.3,15.8,15.7,12.3,20,12.3z
	 M20,15c-2.8,0-5,2.2-5,5s2.2,5,5,5s5-2.2,5-5S22.8,15,20,15z M28,10.2c1,0,1.8,0.8,1.8,1.8S29,13.8,28,13.8c-1,0-1.8-0.8-1.8-1.8
	S27,10.2,28,10.2z"/>
</svg>
