<?xml version="1.0" encoding="UTF-8"?>
<svg width="30px" height="30px" viewBox="0 0 30 30" version="1.1" xmlns="http://www.w3.org/2000/svg" xmlns:xlink="http://www.w3.org/1999/xlink">
    <title>C8E58CC0-955F-46CC-8438-E63E8CEDB15E</title>
    <g id="01-Design" stroke="none" stroke-width="1" fill="none" fill-rule="evenodd">
        <g id="09-[1440]-Customer-Service-—-FAQs" transform="translate(-435.000000, -633.000000)" fill="#000000">
            <g id="Right-Block" transform="translate(291.000000, 374.000000)">
                <g id="Filters" transform="translate(30.000000, 189.000000)">
                    <g id="Icon-/-Customer-Service-/-Online-Services" transform="translate(114.000000, 70.000000)">
                        <path d="M29,21 C29,21.551 28.551,22 28,22 L26,22 C25.449,22 25,21.551 25,21 L25,15 C25,14.449 25.449,14 26,14 L28,14 C28.551,14 29,14.449 29,15 L29,21 Z M2,14 L4,14 C4.551,14 5,14.449 5,15 L5,21 C5,21.551 4.551,22 4,22 L2,22 C1.449,22 1,21.551 1,21 L1,15 C1,14.449 1.449,14 2,14 L2,14 Z M15,0 C6.716,0 0,6.716 0,15 L0,21 C0,22.105 0.895,23 2,23 L4,23 C5.105,23 6,22.105 6,21 L6,15 C6,13.895 5.105,13 4,13 L2,13 C1.686,13 1.392,13.079 1.127,13.208 C2.009,6.325 7.877,1 15,1 C22.123,1 27.991,6.325 28.873,13.208 C28.608,13.079 28.314,13 28,13 L26,13 C24.895,13 24,13.895 24,15 L24,21 C24,22.105 24.895,23 26,23 L26.497,23 C26.465,23.643 25.967,28.135 18.824,28.466 C18.646,28.192 18.352,28 18,28 L15,28 C14.448,28 14,28.448 14,29 C14,29.552 14.448,30 15,30 L18,30 C18.383,30 18.705,29.777 18.873,29.461 C26.878,29.083 27.459,23.683 27.497,23 L28,23 C29.105,23 30,22.105 30,21 L30,15 C30,6.716 23.284,0 15,0 L15,0 Z" id="Online-Services-Icon"></path>
                    </g>
                </g>
            </g>
        </g>
    </g>
</svg>