<?xml version="1.0" encoding="UTF-8"?>
<svg width="22px" height="30px" viewBox="0 0 22 30" version="1.1" xmlns="http://www.w3.org/2000/svg" xmlns:xlink="http://www.w3.org/1999/xlink">
    <title>A8C4E4BC-F675-4E20-B33D-F275AEB38EE1</title>
    <g id="01-Design" stroke="none" stroke-width="1" fill="none" fill-rule="evenodd">
        <g id="09-[1440]-Customer-Service-—-FAQs" transform="translate(-993.000000, -633.000000)" fill="#000000">
            <g id="Right-Block" transform="translate(291.000000, 374.000000)">
                <g id="Filters" transform="translate(30.000000, 189.000000)">
                    <g id="Category" transform="translate(554.000000, 0.000000)">
                        <g id="Icon" transform="translate(114.000000, 70.000000)">
                            <g id="Icon-/-Customer-Service-/-Product-&amp;-Repair" transform="translate(4.000000, 0.000000)">
                                <path d="M9.023,0.000199999995 C9.289,0.000199999995 9.555,0.1072 9.754,0.3502 C10.532,1.2972 11,2.5082 11,3.8302 C11,5.9672 9.779,7.8142 8,8.7252 L8,8.7252 L8,27.5002 C8,28.8812 6.88,30.0002 5.5,30.0002 C5.415,30.0002 5.329,29.9962 5.242,29.9872 C3.941,29.8572 3,28.6652 3,27.3572 L3,27.3572 L3,8.7252 C1.22,7.8142 0,5.9672 0,3.8302 C0,2.5082 0.467,1.2972 1.245,0.3502 C1.444,0.1072 1.711,0.000199999995 1.976,0.000199999995 C2.49,0.000199999995 3,0.4052 3,1.0132 L3,1.0132 L3,2.1642 C3,3.5442 4.119,4.6642 5.5,4.6642 C5.585,4.6642 5.671,4.6602 5.757,4.6512 C7.059,4.5212 8,3.3292 8,2.0212 L8,2.0212 L8,1.0132 C8,0.4052 8.509,0.000199999995 9.023,0.000199999995 Z M16.4996,0 C16.5846,0 16.6706,0.004 16.7576,0.013 C18.0586,0.143 18.9996,1.335 18.9996,2.643 L18.9996,2.643 L18.9996,21.275 C20.7796,22.186 21.9996,24.033 21.9996,26.17 C21.9996,27.492 21.5326,28.703 20.7546,29.65 C20.5556,29.893 20.2886,30 20.0236,30 C19.5086,30 18.9996,29.596 18.9996,28.987 L18.9996,28.987 L18.9996,27.836 C18.9996,26.456 17.8806,25.336 16.4996,25.336 C16.4146,25.336 16.3286,25.341 16.2416,25.349 C14.9406,25.48 13.9996,26.671 13.9996,27.979 L13.9996,27.979 L13.9996,28.987 C13.9996,29.596 13.4906,30 12.9756,30 C12.7106,30 12.4436,29.893 12.2446,29.65 C11.4666,28.703 10.9996,27.492 10.9996,26.17 C10.9996,24.033 12.2196,22.186 13.9996,21.275 L13.9996,21.275 L13.9996,2.5 C13.9996,1.12 15.1186,0 16.4996,0 Z M16.4996,1 C15.6726,1 14.9996,1.673 14.9996,2.5 L14.9996,2.5 L14.9996,21.886 L14.4556,22.165 C12.9406,22.94 11.9996,24.475 11.9996,26.17 C11.9996,27.221 12.3516,28.205 13.0176,29.016 L13.0176,29.016 L12.9996,27.979 C12.9996,26.123 14.3796,24.531 16.1426,24.354 C16.2626,24.342 16.3816,24.336 16.4996,24.336 C18.4296,24.336 19.9996,25.906 19.9996,27.836 L19.9996,27.836 L19.9996,28.987 C20.6476,28.205 20.9996,27.221 20.9996,26.17 C20.9996,24.475 20.0586,22.94 18.5436,22.165 L18.5436,22.165 L17.9996,21.886 L17.9996,2.643 C17.9996,1.802 17.4106,1.083 16.6576,1.008 C16.6046,1.003 16.5516,1 16.4996,1 Z M2,1.0132 C1.352,1.7952 1,2.7802 1,3.8302 C1,5.5252 1.941,7.0602 3.455,7.8352 L3.455,7.8352 L4,8.1142 L4,27.3572 C4,28.1992 4.589,28.9172 5.341,28.9922 C5.395,28.9972 5.448,29.0002 5.5,29.0002 C6.327,29.0002 7,28.3272 7,27.5002 L7,27.5002 L7,8.1142 L7.544,7.8352 C9.059,7.0602 10,5.5252 10,3.8302 C10,2.8022 9.662,1.8372 9.023,1.0362 L9.023,1.0362 L9,2.0212 C9,3.8772 7.619,5.4702 5.857,5.6462 C5.737,5.6582 5.617,5.6642 5.5,5.6642 C3.57,5.6642 2,4.0942 2,2.1642 L2,2.1642 Z" id="Product-&amp;-Repair-Icon"></path>
                            </g>
                        </g>
                    </g>
                </g>
            </g>
        </g>
    </g>
</svg>