<?xml version="1.0" encoding="UTF-8"?>
<svg width="30px" height="30px" viewBox="0 0 30 30" version="1.1" xmlns="http://www.w3.org/2000/svg" xmlns:xlink="http://www.w3.org/1999/xlink">
    <title>338A0A63-1C64-4519-86FF-F8A8BA055438</title>
    <g id="01-Design" stroke="none" stroke-width="1" fill="none" fill-rule="evenodd">
        <g id="09-[1440]-Customer-Service-—-FAQs" transform="translate(-1266.000000, -633.000000)" fill="#000000">
            <g id="Right-Block" transform="translate(291.000000, 374.000000)">
                <g id="Filters" transform="translate(30.000000, 189.000000)">
                    <g id="Category" transform="translate(831.000000, 0.000000)">
                        <g id="Icon-/-Customer-Service-/-Refill-Finder" transform="translate(114.000000, 70.000000)">
                            <path d="M24.5,0 C27.538,0 30,2.463 30,5.5 L30,5.5 L30,20 L25,24.546 L25,29.5 C25,29.777 24.776,30 24.5,30 C24.224,30 24,29.777 24,29.5 L24,29.5 L24,24.546 L19,20 L19,5.5 C19,2.463 21.462,0 24.5,0 Z M11,12.0004 C12.657,12.0004 14,13.3434 14,15.0004 L14,15.0004 L13.9932682,15.1169685 C13.9354694,15.6141143 13.5125714,16.0004 13,16.0004 L13,16.0004 L12,16.0004 L12,18.0004 C14.209,18.0004 16,19.7914 16,22.0004 L16,22.0004 L16,29.0004 C16,29.5524 15.552,30.0004 15,30.0004 L15,30.0004 L1,30.0004 C0.448,30.0004 0,29.5524 0,29.0004 L0,29.0004 L0,22.0004 C0,19.7914 1.791,18.0004 4,18.0004 L4,18.0004 L4,16.0004 L3,16.0004 C2.448,16.0004 2,15.5524 2,15.0004 L2,15.0004 L2.00509216,14.8241127 C2.09632908,13.2491844 3.40217857,12.0004 5,12.0004 L5,12.0004 Z M12,19.0004 L4,19.0004 C2.346,19.0004 1,20.3464 1,22.0004 L1,22.0004 L1,29.0004 L15,29.0004 L15,22.0004 C15,20.3464 13.654,19.0004 12,19.0004 L12,19.0004 Z M29,6.623 L25,10.225 L25,23.194 L29,19.558 L29,6.623 Z M20,14.121 L20,19.558 L24,23.194 L24,17.723 L20,14.121 Z M11,16.0004 L5,16.0004 L5,18.0004 L11,18.0004 L11,16.0004 Z M24,1.051 C21.756,1.303 20,3.19 20,5.5 L20,5.5 L20,12.776 L24,16.377 Z M11,13.0004 L5,13.0004 C3.897,13.0004 3,13.8974 3,15.0004 L3,15.0004 L13,15.0004 C13,13.8974 12.103,13.0004 11,13.0004 L11,13.0004 Z M25,1.051 L25,8.879 L28.979,5.296 C28.878,3.081 27.176,1.296 25,1.051 L25,1.051 Z" id="Refill-Finder-Icon"></path>
                        </g>
                    </g>
                </g>
            </g>
        </g>
    </g>
</svg>