<?xml version="1.0" encoding="UTF-8" standalone="no"?>
<svg
   xmlns:dc="http://purl.org/dc/elements/1.1/"
   xmlns:cc="http://creativecommons.org/ns#"
   xmlns:rdf="http://www.w3.org/1999/02/22-rdf-syntax-ns#"
   xmlns:svg="http://www.w3.org/2000/svg"
   xmlns="http://www.w3.org/2000/svg"
   viewBox="0 0 1650 1068"
   height="1068"
   width="1650"
   id="svg10"
   version="1.1">
  <metadata
     id="metadata16">
    <rdf:RDF>
      <cc:Work
         rdf:about="">
        <dc:format>image/svg+xml</dc:format>
        <dc:type
           rdf:resource="http://purl.org/dc/dcmitype/StillImage" />
        <dc:title></dc:title>
      </cc:Work>
    </rdf:RDF>
  </metadata>
  <defs
     id="defs14" />
  <path
     style="fill:#f8e806"
     d="m 52.706185,1065.025 c -11.482881,-4.79 -17.815364,-9.1322 -27.853724,-19.0992 -8.615219,-8.5539 -10.184542,-10.6943 -14.666108,-20.0024 C 7.426139,1020.1905 4.3425314,1012.35 3.3338912,1008.5 1.5680075,1001.7596 1.5,984.21899 1.5,535.5 1.5,87.605926 1.5709137,69.228023 3.3251352,62.5 6.4897659,50.362589 14.216434,36.041646 22.230129,27.460659 33.148959,15.768883 42.579824,9.5987031 57.694276,4.2581046 L 65.5,1.5 822.5,1.2441209 c 753.0395,-0.25454036 757.0419,-0.24545887 765,1.7358359 C 1615.5123,9.9540106 1637.3504,30.81044 1646.157,59 l 2.343,7.5 v 469 469 l -2.3416,7.4569 c -7.7653,24.7285 -24.1536,42.7919 -48.0131,52.9209 L 1590.7906,1068 825.14529,1067.929 59.5,1067.859 52.706185,1065.0249 Z M 456.89535,810.08584 c 0.95731,-0.60617 5.7368,-25.63714 15.22476,-79.73469 7.60618,-43.36813 14.07434,-79.86365 14.3737,-81.10115 L 487.0381,647 H 542.51905 598 l -3.3e-4,2.25 c -1.9e-4,1.2375 -4.58069,27.9 -10.17891,59.25 -8.38795,46.97253 -10.18084,58.7592 -10.19145,67 -0.0163,12.67568 2.19298,18.30901 9.96698,25.41401 8.55616,7.81984 10.03937,8.08599 45.0628,8.08599 h 30.30281 l 0.52776,-2.25 C 665.65596,797.51456 698,610.30637 698,607.00323 698,591.81647 686.57218,571.70924 672.98588,562.99094 662.18172,556.05793 661.6148,556 604.57087,556 c -48.05605,0 -51.74067,0.12525 -59.10693,2.00922 -16.27758,4.16311 -33.44012,14.9135 -42.77778,26.79545 -2.80039,3.56342 -5.23315,6.05437 -5.40613,5.53542 -0.17298,-0.51895 1.21767,-9.02026 3.09033,-18.89182 1.87267,-9.87155 3.20387,-18.28577 2.95823,-18.69827 -0.24564,-0.4125 -23.55931,-0.75 -51.80815,-0.75 h -51.36153 l -0.57035,2.75 c -0.3137,1.5125 -10.49155,58.55 -22.61745,126.75 -12.1259,68.2 -22.27472,124.7541 -22.55294,125.67578 -0.29204,0.9675 0.25234,2.11696 1.288,2.71959 2.23608,1.30116 99.14701,1.48357 101.18918,0.19047 z M 345.5,606.86585 c 20.35,-28.62917 37.1455,-52.68592 37.32332,-53.45945 0.27213,-1.1837 -4.28036,-1.4064 -28.75,-1.4064 -15.99032,0 -29.07342,0.1125 -29.07355,0.25 -1.2e-4,0.1375 -4.05002,23.2 -8.99977,51.25 -8.97196,50.84368 -9.67002,55.53623 -8.25,55.45944 0.4125,-0.0223 17.4,-23.46442 37.75,-52.09359 z"
     id="path2094" />
  <path
     style="fill:#292c69"
     d="m 52.70618,1065.025 c -11.48288,-4.79 -17.81536,-9.1322 -27.85372,-19.0992 -8.61522,-8.5539 -10.18454,-10.6943 -14.66611,-20.0024 C 7.42614,1020.1905 4.34253,1012.35 3.33389,1008.5 1.56801,1001.7596 1.5,984.219 1.5,535.5 1.5,87.60593 1.5709,69.22802 3.32514,62.5 6.48977,50.362589 14.21643,36.041646 22.23013,27.460659 33.14896,15.768883 42.57982,9.598703 57.69428,4.258105 L 65.5,1.5 822.5,1.244121 c 753.0395,-0.25454 757.0419,-0.245459 765,1.735836 28.0123,6.974054 49.8504,27.830483 58.657,56.020043 l 2.343,7.5 v 469 469 l -2.3416,7.4569 c -7.7653,24.7285 -24.1536,42.7919 -48.0131,52.9209 L 1590.7906,1068 825.14529,1067.929 59.5,1067.859 52.70618,1065.0249 Z M 987.13565,894.31007 c 15.15665,-4.30693 29.61585,-13.12134 40.92565,-24.94857 10.8149,-11.30959 17.9428,-23.65935 21.2754,-36.8615 2.8161,-11.15566 22.9605,-128.28324 22.3408,-129.89807 C 1071.1252,701.1626 1066.0477,701 1021.6538,701 c -38.30919,0 -49.64111,0.28081 -50.44252,1.25 -0.56849,0.6875 -4.84573,23.01577 -9.50498,49.61838 -5.62164,32.09751 -8.93137,48.65981 -9.83883,49.23469 -0.75211,0.47647 -34.94987,0.8732 -75.99503,0.88162 -58.50647,0.012 -74.84786,-0.25472 -75.64742,-1.23469 -0.71334,-0.8743 2.97275,-23.84071 12.26405,-76.41183 7.30615,-41.33901 13.58655,-75.65151 13.95644,-76.25 C 826.92433,647.31341 862.82173,647 951.08046,647 h 123.96244 l 0.9204,-2.25 C 1076.7955,642.71567 1092,555.86443 1092,553.14505 1092,552.29028 1055.4838,552 947.95784,552 c -156.47304,0 -150.407,-0.20243 -164.97134,5.50529 -14.81456,5.80578 -30.92656,18.555 -40.6356,32.15443 -4.72631,6.62013 -10.49102,18.33898 -12.2339,24.86981 -0.59145,2.21625 -9.47767,51.26625 -19.74716,109 -21.13258,118.80463 -21.12043,118.70298 -15.99142,133.7983 7.09647,20.88581 23.53188,34.94638 45.14099,38.61833 2.73933,0.46548 57.85559,0.77598 122.48059,0.68999 117.31921,-0.15609 117.51175,-0.15967 125.13565,-2.32608 z m 413.68535,-0.10458 c 24.1766,-7.43643 44.9883,-24.82286 55.9069,-46.70549 1.6465,-3.3 3.725,-8.25 4.6187,-11 0.8937,-2.75 10.0413,-52.475 20.328,-110.5 20.8227,-117.45697 21.0351,-119.16791 16.5703,-133.5 -6.1078,-19.60597 -20.7042,-33.37444 -40.8409,-38.52456 C 1449.9293,552.06375 1445.9245,552 1333.2979,552 c -127.6242,0 -123.2919,-0.18797 -138.2993,6.00059 -3.9377,1.62376 -9.9304,4.63559 -13.3172,6.69295 -7.6948,4.67436 -20.5367,16.85086 -26.3305,24.96618 -4.7214,6.61326 -10.4942,18.34465 -12.2234,24.84028 -1.278,4.80068 -36.6056,204.60329 -38.1879,215.9793 -1.8994,13.65645 1.3612,28.73415 8.7146,40.29794 8.3673,13.15814 24.5861,23.29971 40.8458,25.5408 1.65,0.22742 56.1,0.35179 121,0.27639 l 118,-0.13709 z M 1213.2717,800.75 c -0.6563,-0.8429 3.3225,-25.54913 12.2167,-75.85957 7.2544,-41.03526 13.4742,-75.35057 13.8217,-76.25625 0.5803,-1.51212 6.8653,-1.62575 76.9109,-1.39043 l 76.279,0.25625 -0.2868,3.69838 c -0.7805,10.0626 -26.1989,149.17671 -27.3958,149.93562 -0.7246,0.45945 -34.8998,0.84227 -75.945,0.85069 -58.531,0.012 -74.8374,-0.2543 -75.6007,-1.23469 z m -756.37635,9.33584 c 0.95731,-0.60617 5.7368,-25.63714 15.22476,-79.73469 7.60618,-43.36813 14.07434,-79.86365 14.3737,-81.10115 L 487.0381,647 H 542.51905 598 l -3.3e-4,2.25 c -1.9e-4,1.2375 -4.58069,27.9 -10.17891,59.25 -8.38795,46.97253 -10.18084,58.7592 -10.19145,67 -0.0163,12.67568 2.19298,18.30901 9.96698,25.41401 8.55616,7.81984 10.03937,8.08599 45.0628,8.08599 h 30.30281 l 0.52776,-2.25 C 665.65596,797.51456 698,610.30637 698,607.00323 698,591.81647 686.57218,571.70924 672.98588,562.99094 662.18172,556.05793 661.6148,556 604.57087,556 c -48.05605,0 -51.74067,0.12525 -59.10693,2.00922 -16.27758,4.16311 -33.44012,14.9135 -42.77778,26.79545 -2.80039,3.56342 -5.23315,6.05437 -5.40613,5.53542 -0.17298,-0.51895 1.21767,-9.02026 3.09033,-18.89182 1.87267,-9.87155 3.20387,-18.28577 2.95823,-18.69827 -0.24564,-0.4125 -23.55931,-0.75 -51.80815,-0.75 h -51.36153 l -0.57035,2.75 c -0.3137,1.5125 -10.49155,58.55 -22.61745,126.75 -12.1259,68.2 -22.27472,124.7541 -22.55294,125.67578 -0.29204,0.9675 0.25234,2.11696 1.288,2.71959 2.23608,1.30116 99.14701,1.48357 101.18918,0.19047 z M 345.5,606.86585 c 20.35,-28.62917 37.1455,-52.68592 37.32332,-53.45945 0.27213,-1.1837 -4.28036,-1.4064 -28.75,-1.4064 -15.99032,0 -29.07342,0.1125 -29.07355,0.25 -1.2e-4,0.1375 -4.05002,23.2 -8.99977,51.25 -8.97196,50.84368 -9.67002,55.53623 -8.25,55.45944 0.4125,-0.0223 17.4,-23.46442 37.75,-52.09359 z M 923.82208,509.4825 C 924.22764,509.11315 969,255.34841 969,253.41914 c 0,-2.16972 -89.79266,-2.12305 -90.62542,0.0471 -0.30946,0.80643 -7.20384,39.10128 -15.32085,85.09965 -9.52995,54.00538 -15.22151,83.91976 -16.06602,84.44169 -1.73932,1.07497 -110.10916,1.17838 -111.82045,0.10672 -1.07437,-0.67282 1.49422,-16.87388 13.25,-83.57269 C 756.43777,294.03567 763,255.72274 763,254.40177 V 252 h -44.93261 c -41.91911,0 -44.96909,0.11737 -45.47649,1.75 -0.29914,0.9625 -8.70149,48.1 -18.6719,104.75 -16.04354,91.15642 -18.06087,103.82301 -17.54408,110.1575 1.47895,18.12801 12.47495,32.12708 29.32263,37.3308 6.17962,1.90869 9.2088,2.01081 59.15779,1.99434 57.38184,-0.0189 59.71201,-0.20359 72.99509,-5.78454 10.40739,-4.37273 20.45504,-11.47438 31.81099,-22.48394 l 10.16142,-9.85146 5.03182,10.31865 c 9.0242,18.50571 15.39697,24.71581 28.14534,27.42688 11.66719,2.48115 48.65786,3.84534 50.82208,1.87427 z M 263.46919,505.75 c 0.27902,-1.2375 11.08175,-62.325 24.00608,-135.75 12.92433,-73.425 23.7382,-134.5125 24.03081,-135.75 L 312.0381,232 h 59.85851 c 46.67012,0 60.08572,-0.27541 60.88977,-1.25 C 433.72643,229.61057 448,151.70694 448,147.71569 448,146.10136 437.75311,146 274.55902,146 172.64338,146 100.88827,146.37177 100.56087,146.90151 99.43614,148.72136 85.78816,229.00556 86.3532,230.47805 86.86703,231.81707 94.09274,232 146.46862,232 H 206 l -0.001,2.25 c -5.9e-4,1.2375 -10.57559,62.26367 -23.5,135.61371 C 169.57451,443.21374 159,504.30124 159,505.61371 V 508 h 51.98095 51.98095 z m 294.41677,0.71511 c 20.97857,-4.94517 40.22801,-23.33313 46.54832,-44.46511 0.90474,-3.025 7.72976,-40.15 15.16672,-82.5 12.45612,-70.93183 13.49429,-77.78807 13.17342,-87 -0.42374,-12.16537 -3.04468,-18.73343 -10.70949,-26.83783 -5.83425,-6.16886 -12.27413,-9.96068 -20.59989,-12.12926 -8.81852,-2.29693 -185.68054,-2.27516 -195.46504,0.0241 -19.65237,4.61804 -38.93522,21.56082 -45.67681,40.13369 -3.01103,8.29529 -29.4763,156.87644 -30.08711,168.91486 -0.51456,10.14134 1.12266,17.73774 5.39366,25.02566 4.94277,8.43419 16.59786,17.03985 26.11618,19.28315 2.06475,0.48662 45.60408,0.92332 96.75408,0.97044 79.52987,0.0733 93.92494,-0.13236 99.38596,-1.41966 z M 429.08222,423.0795 c -1.19297,-0.76143 -0.24158,-7.61815 6,-43.24221 L 442.5,337.5 l 45.93978,-0.26022 c 25.26689,-0.14311 46.25414,0.0819 46.63835,0.5 0.38422,0.41812 -2.62424,19.43522 -6.68545,42.26022 -5.49034,30.85702 -7.79972,41.80659 -9.00491,42.69547 -1.97708,1.45819 -88.04917,1.82421 -90.30555,0.38403 z M 1176.0452,507.75 c 8.815,-48.73119 14.4721,-82.43531 13.9401,-83.05309 -0.3803,-0.44171 -28.9951,-0.78201 -63.5884,-0.75624 -34.8373,0.026 -63.5135,-0.34771 -64.279,-0.83759 -1.1455,-0.73298 -0.1481,-7.88185 5.8242,-41.74377 3.9635,-22.47262 7.4283,-41.64681 7.6995,-42.60931 0.4634,-1.64433 4.536,-1.75 67.4472,-1.75 h 66.9541 l 0.9622,-2.25 c 1.2695,-2.96849 14.908,-81.03038 14.3266,-82 -0.2474,-0.4125 -40.8107,-0.74335 -90.1407,-0.73522 -100.4142,0.0165 -96.1011,-0.26516 -110.577,7.22238 C 1010.3112,266.63523 996.72532,282.43431 992.14122,297 990.03826,303.68203 963,459.65164 963,465.10051 c 0,19.581 12.52345,36.38436 30.89247,41.45003 3.55391,0.98007 24.90233,1.29107 93.35753,1.36004 48.8125,0.0492 88.7704,-0.0231 88.7952,-0.16058 z m 148.3223,-1.5 c 0.2762,-0.9625 6.6209,-36.85 14.0992,-79.75 7.4784,-42.9 14.0231,-79.0125 14.5437,-80.25 l 0.9467,-2.25 h 50.399 c 39.1498,0 50.6094,0.279 51.3417,1.25 0.6172,0.81836 -1.3901,14.37194 -5.8128,39.25 -13.466,75.7466 -15.1551,86.5345 -14.4771,92.45749 1.4965,13.07202 7.0962,21.68752 17.3777,26.73636 l 5.7144,2.80615 27.2163,0.30855 27.2162,0.30855 0.5176,-2.30855 c 0.2847,-1.2697 8.441,-47.30855 18.1251,-102.30855 16.3661,-92.95009 17.5754,-100.65415 17.1539,-109.2788 -0.399,-8.16436 -0.8923,-10.16673 -4.1071,-16.67162 -5.9591,-12.05737 -16.5455,-19.96709 -30.0557,-22.45631 -9.5775,-1.76465 -97.2855,-1.43583 -105.9372,0.39716 -13.9731,2.96041 -29.1425,12.76665 -38.0224,24.57946 -2.5585,3.40354 -5.0579,6.91392 -5.5542,7.80085 -0.4964,0.88693 -1.1561,1.35899 -1.4661,1.04903 -0.3099,-0.30997 4.6052,-29.93842 10.9227,-65.84102 6.3174,-35.90259 11.2357,-65.68273 10.9295,-66.17809 -0.6874,-1.11232 -94.1224,-1.22131 -94.8089,-0.11059 C 1289.9512,156.88791 1229,503.01258 1229,505.76777 V 508 h 47.4326 c 44.3159,0 47.4656,-0.11499 47.9349,-1.75 z"
     id="path2092" />
</svg>
